# xmcd
#
# Track frame offsets:
# 150
# 8128
# 17530
# 40502
# 59055
# 80734
# 98801
# 119839
# 133090
# 148067
# 161827
# 177473
# 196746
# 214662
# 226608
# 240601
#
# Disc length: 3350 seconds
#
# Revision: 1
# Processed by: cddbd v1.5.1PL0 Copyright (c) Steve Scherf et al.
# Submitted via: CedeCatalogueitor 2.6.0.5 http://personales.ya.com/cdcatalogueitor
#
DISCID=dc0d1410
DTITLE=Manolo Caracol - QUEJÍO  "EL GENIO"  Disco-1
DYEAR=1997
DGENRE=Flamenco
TTITLE0=En El Calabozo
TTITLE1=Mis Ducas No Eran Na
TTITLE2=El Reniego
TTITLE3=Mujer Malina
TTITLE4=De Santiago A Santa Ana
TTITLE5=Cuando Yo Muera
TTITLE6=Me Pueden Mandar
TTITLE7=Si Yo Pudiera
TTITLE8=Tiro Piedras Por Las Calles
TTITLE9=Al Señor Del Baratillo
TTITLE10=Soy Como Aquel Jilguerillo
TTITLE11=Que Del Nío La Cogí
TTITLE12=Se La Llevó Dios
TTITLE13=Viva Madrid
TTITLE14=Veneno Me Dejaste
TTITLE15=Antes De Llegar A Tu Puerta
EXTD=
EXTT0=
EXTT1=
EXTT2=
EXTT3=
EXTT4=
EXTT5=
EXTT6=
EXTT7=
EXTT8=
EXTT9=
EXTT10=
EXTT11=
EXTT12=
EXTT13=
EXTT14=
EXTT15=
PLAYORDER=
